<?xml version="1.0" encoding="UTF-8" standalone="no"?>
<svg
   viewBox="0 0 128 128"
   width="128"
   height="128"
   version="1.1"
   id="svg6"
   sodipodi:docname="icon.svg"
   inkscape:version="1.4.4 (dcaf3e7, 2026-05-05)"
   inkscape:export-filename="icon-120.png"
   inkscape:export-xdpi="90"
   inkscape:export-ydpi="90"
   xmlns:inkscape="http://www.inkscape.org/namespaces/inkscape"
   xmlns:sodipodi="http://sodipodi.sourceforge.net/DTD/sodipodi-0.dtd"
   xmlns="http://www.w3.org/2000/svg"
   xmlns:svg="http://www.w3.org/2000/svg">
  <sodipodi:namedview
     id="namedview6"
     pagecolor="#505050"
     bordercolor="#ffffff"
     borderopacity="1"
     inkscape:showpageshadow="0"
     inkscape:pageopacity="0"
     inkscape:pagecheckerboard="1"
     inkscape:deskcolor="#d1d1d1"
     showgrid="false"
     inkscape:zoom="4.2094951"
     inkscape:cx="45.373613"
     inkscape:cy="85.877283"
     inkscape:window-width="1920"
     inkscape:window-height="1009"
     inkscape:window-x="1912"
     inkscape:window-y="-8"
     inkscape:window-maximized="1"
     inkscape:current-layer="svg6" />
  <!-- Docs Accessibility Checker icon: a document page with an accessibility
       figure and a check mark. Original artwork, MIT licensed.
       Export PNGs: 128x128 (store icon), 32x32 (toolbar). -->
  <defs
     id="defs1">
    <clipPath
       id="page">
      <rect
         x="24"
         y="12"
         width="80"
         height="104"
         rx="8"
         id="rect1" />
    </clipPath>
  </defs>
  <g
     id="g2"
     inkscape:label="doc">
    <rect
       x="7.133369"
       y="5.8234873"
       width="96.153954"
       height="116.35303"
       rx="8"
       fill="#1a5cb0"
       id="rect2"
       inkscape:label="doc"
       style="stroke:#103a71;stroke-opacity:1;stroke-width:4.78110236;stroke-dasharray:none" />
    <rect
       x="7.133369"
       y="6.0610456"
       width="95.916397"
       height="116.11547"
       rx="8"
       fill="none"
       stroke="#174c92"
       stroke-width="4"
       id="rect3"
       inkscape:label="doc border"
       style="display:none;stroke:#174c91;stroke-opacity:1" />
    <g
       id="g3"
       inkscape:label="text">
      <rect
         x="19.113539"
         y="36.141743"
         width="71.958008"
         height="7.4278216"
         rx="3.854893"
         fill="#8fb4ec"
         id="rect5"
         inkscape:label="bottom txt"
         style="stroke-width:1.26125" />
      <rect
         x="19.113539"
         y="20.70866"
         width="54.026245"
         height="7.67979"
         rx="4.0519686"
         fill="#bcd3f5"
         id="rect4"
         inkscape:label="top txt"
         style="stroke-width:1.31484" />
    </g>
  </g>
  <!-- accessibility figure -->
  <g
     fill="#ffffff"
     id="g6"
     inkscape:label="person"
     transform="translate(1.1877909,0.00271411)">
    <circle
       cx="35.769035"
       cy="65.121719"
       r="7"
       id="circle5"
       inkscape:label="head"
       style="stroke:#103a71;stroke-width:0.623622;stroke-dasharray:none;stroke-opacity:1" />
    <path
       d="m 18,78 c 0,-2.2 1.8,-4 4,-4 h 28 c 2.2,0 4,1.8 4,4 0,2.2 -1.8,4 -4,4 h -8 v 10 l 7,16 c 0.9,2 -0.1,4.4 -2.1,5.3 -2,0.9 -4.4,-0.1 -5.3,-2.1 L 36,98.4 30.4,111.2 c -0.9,2 -3.3,3 -5.3,2.1 -2,-0.9 -3,-3.3 -2.1,-5.3 L 30,92 V 82 h -8 c -2.2,0 -4,-1.8 -4,-4 z"
       id="path5"
       sodipodi:nodetypes="csssscccscccscccsc"
       inkscape:label="body"
       style="stroke:#103a71;stroke-width:0.623622;stroke-dasharray:none;stroke-opacity:1" />
  </g>
  <!-- check badge -->
  <g
     id="g1"
     inkscape:label="check"
     transform="matrix(1.0975118,0,0,1.1089649,-14.854902,-18.362283)">
    <circle
       cx="98"
       cy="94"
       r="22"
       fill="#146c2e"
       stroke="#ffffff"
       stroke-width="4"
       id="circle3"
       inkscape:label="circle border"
       style="stroke:#030033;stroke-width:4.68662;stroke-dasharray:none;stroke-opacity:0.75" />
    <circle
       cx="98"
       cy="94"
       r="22"
       fill="#146c2e"
       stroke="#ffffff"
       stroke-width="4"
       id="circle6"
       inkscape:label="check circle"
       style="stroke-width:4.00145;stroke-dasharray:none" />
    <path
       d="m 87,94 8,8 16,-16"
       fill="none"
       stroke="#ffffff"
       stroke-width="6"
       stroke-linecap="round"
       stroke-linejoin="round"
       id="path6"
       inkscape:label="checkmark" />
  </g>
</svg>
